HIERARCHY
ROOT Hips
{
  OFFSET 5.72205e-005 65.662 3.42586
  CHANNELS 6 Xposition Yposition Zposition Zrotation Xrotation Yrotation
  JOINT Chest
  {
    OFFSET 0 8.7983 -4.7612
    CHANNELS 3 Zrotation Xrotation Yrotation
    JOINT Chest2
    {
      OFFSET 0 8.0291 0.4195
      CHANNELS 3 Zrotation Xrotation Yrotation
      JOINT Chest3
      {
        OFFSET 0 9.9351 -2.2114
        CHANNELS 3 Zrotation Xrotation Yrotation
        JOINT Neck
        {
          OFFSET 0 22.3885 -0.4656
          CHANNELS 3 Zrotation Xrotation Yrotation
          JOINT Head
          {
            OFFSET -0.0001 12.643 3.4389
            CHANNELS 3 Zrotation Xrotation Yrotation
            End Site
            {
              OFFSET 0.0001 17.6655 0.5274
            }
          }
        }
        JOINT LeftCollar
        {
          OFFSET 2.2603 21.606 7.4023
          CHANNELS 3 Zrotation Xrotation Yrotation
          JOINT LeftShoulder
          {
            OFFSET 13.5163 -1.1332 -5.0146
            CHANNELS 3 Zrotation Xrotation Yrotation
            JOINT LeftElbow
            {
              OFFSET -0.0995 -28.05 -0.2431
              CHANNELS 3 Zrotation Xrotation Yrotation
              JOINT LeftWrist
              {
                OFFSET 0.0679 -23.3996 -0.1402
                CHANNELS 3 Zrotation Xrotation Yrotation
                JOINT LeftFinger1
                {
                  OFFSET 0.7932 -9.069 2.5189
                  CHANNELS 3 Zrotation Xrotation Yrotation
                  JOINT LeftFinger11
                  {
                    OFFSET -0.8272 -3.3923 0.5977
                    CHANNELS 3 Zrotation Xrotation Yrotation
                    JOINT LeftFinger12
                    {
                      OFFSET -0.5649 -2.3158 0.4082
                      CHANNELS 3 Zrotation Xrotation Yrotation
                      End Site
                      {
                        OFFSET -0.4919 -1.6479 0.2673
                      }
                    }
                  }
                }
                JOINT LeftFinger2
                {
                  OFFSET 0.9159 -9.2044 0.2193
                  CHANNELS 3 Zrotation Xrotation Yrotation
                  JOINT LeftFinger21
                  {
                    OFFSET 0.0117 -4.1944 -0.0248
                    CHANNELS 3 Zrotation Xrotation Yrotation
                    JOINT LeftFinger22
                    {
                      OFFSET 0.0071 -2.3249 -0.0142
                      CHANNELS 3 Zrotation Xrotation Yrotation
                      End Site
                      {
                        OFFSET -0.1475 -2.0882 0.0028
                      }
                    }
                  }
                }
                JOINT LeftFinger3
                {
                  OFFSET 0.6113 -8.7231 -2.0637
                  CHANNELS 3 Zrotation Xrotation Yrotation
                  JOINT LeftFinger31
                  {
                    OFFSET -0.1927 -3.8059 -0.2383
                    CHANNELS 3 Zrotation Xrotation Yrotation
                    JOINT LeftFinger32
                    {
                      OFFSET -0.1091 -2.1688 -0.1362
                      CHANNELS 3 Zrotation Xrotation Yrotation
                      End Site
                      {
                        OFFSET -0.2358 -1.9176 -0.0906
                      }
                    }
                  }
                }
                JOINT LeftFinger4
                {
                  OFFSET -0.6151 -8.0947 -3.5641
                  CHANNELS 3 Zrotation Xrotation Yrotation
                  JOINT LeftFinger41
                  {
                    OFFSET -0.4882 -2.341 -0.6462
                    CHANNELS 3 Zrotation Xrotation Yrotation
                    JOINT LeftFinger42
                    {
                      OFFSET -0.3575 -1.7167 -0.4742
                      CHANNELS 3 Zrotation Xrotation Yrotation
                      End Site
                      {
                        OFFSET -0.4187 -1.5237 -0.3496
                      }
                    }
                  }
                }
                JOINT LeftFinger0
                {
                  OFFSET -1.42 -1.8761 1.4223
                  CHANNELS 3 Zrotation Xrotation Yrotation
                  JOINT LeftFinger01
                  {
                    OFFSET -1.1471 -3.4929 2.6334
                    CHANNELS 3 Zrotation Xrotation Yrotation
                    JOINT LeftFinger02
                    {
                      OFFSET -0.823 -2.3 1.6571
                      CHANNELS 3 Zrotation Xrotation Yrotation
                      End Site
                      {
                        OFFSET -0.5822 -1.6914 1.1582
                      }
                    }
                  }
                }
              }
            }
          }
        }
        JOINT RightCollar
        {
          OFFSET -2.2603 21.606 7.4023
          CHANNELS 3 Zrotation Xrotation Yrotation
          JOINT RightShoulder
          {
            OFFSET -13.5187 -1.1334 -5.0155
            CHANNELS 3 Zrotation Xrotation Yrotation
            JOINT RightElbow
            {
              OFFSET 0.0994 -28.0499 -0.2431
              CHANNELS 3 Zrotation Xrotation Yrotation
              JOINT RightWrist
              {
                OFFSET -0.0679 -23.3996 -0.1402
                CHANNELS 3 Zrotation Xrotation Yrotation
                JOINT RightFinger1
                {
                  OFFSET -0.7932 -9.0691 2.5189
                  CHANNELS 3 Zrotation Xrotation Yrotation
                  JOINT RightFinger11
                  {
                    OFFSET 0.8272 -3.3923 0.5977
                    CHANNELS 3 Zrotation Xrotation Yrotation
                    JOINT RightFinger12
                    {
                      OFFSET 0.565 -2.3158 0.4082
                      CHANNELS 3 Zrotation Xrotation Yrotation
                      End Site
                      {
                        OFFSET 0.4919 -1.6479 0.2673
                      }
                    }
                  }
                }
                JOINT RightFinger2
                {
                  OFFSET -0.916 -9.2044 0.2193
                  CHANNELS 3 Zrotation Xrotation Yrotation
                  JOINT RightFinger21
                  {
                    OFFSET -0.0117 -4.1944 -0.0248
                    CHANNELS 3 Zrotation Xrotation Yrotation
                    JOINT RightFinger22
                    {
                      OFFSET -0.0071 -2.3249 -0.0142
                      CHANNELS 3 Zrotation Xrotation Yrotation
                      End Site
                      {
                        OFFSET 0.1475 -2.0882 0.0028
                      }
                    }
                  }
                }
                JOINT RightFinger3
                {
                  OFFSET -0.6113 -8.7231 -2.0637
                  CHANNELS 3 Zrotation Xrotation Yrotation
                  JOINT RightFinger31
                  {
                    OFFSET 0.1927 -3.8059 -0.2383
                    CHANNELS 3 Zrotation Xrotation Yrotation
                    JOINT RightFinger32
                    {
                      OFFSET 0.1091 -2.1688 -0.1362
                      CHANNELS 3 Zrotation Xrotation Yrotation
                      End Site
                      {
                        OFFSET 0.2358 -1.9176 -0.0906
                      }
                    }
                  }
                }
                JOINT RightFinger4
                {
                  OFFSET 0.6151 -8.0947 -3.564
                  CHANNELS 3 Zrotation Xrotation Yrotation
                  JOINT RightFinger41
                  {
                    OFFSET 0.4882 -2.341 -0.6462
                    CHANNELS 3 Zrotation Xrotation Yrotation
                    JOINT RightFinger42
                    {
                      OFFSET 0.3574 -1.7166 -0.4742
                      CHANNELS 3 Zrotation Xrotation Yrotation
                      End Site
                      {
                        OFFSET 0.4187 -1.5237 -0.3496
                      }
                    }
                  }
                }
                JOINT RightFinger0
                {
                  OFFSET 1.4199 -1.8761 1.4221
                  CHANNELS 3 Zrotation Xrotation Yrotation
                  JOINT RightFinger01
                  {
                    OFFSET 1.1472 -3.4929 2.6336
                    CHANNELS 3 Zrotation Xrotation Yrotation
                    JOINT RightFinger02
                    {
                      OFFSET 0.8229 -2.3 1.6571
                      CHANNELS 3 Zrotation Xrotation Yrotation
                      End Site
                      {
                        OFFSET 0.5822 -1.6914 1.1582
                      }
                    }
                  }
                }
              }
            }
          }
        }
      }
    }
  }
  JOINT RightHip
  {
    OFFSET -9.412 3.9771 -0.7758
    CHANNELS 3 Zrotation Xrotation Yrotation
    JOINT RightKnee
    {
      OFFSET -0.7531 -40.938 0
      CHANNELS 3 Zrotation Xrotation Yrotation
      JOINT RightAnkle
      {
        OFFSET 0 -40.1986 0
        CHANNELS 3 Zrotation Xrotation Yrotation
        JOINT RightToe
        {
          OFFSET 0 -4.4182 9.239
          CHANNELS 3 Zrotation Xrotation Yrotation
          End Site
          {
            OFFSET 0 0 6.1981
          }
        }
      }
    }
  }
  JOINT LeftHip
  {
    OFFSET 9.4119 3.9773 -0.7758
    CHANNELS 3 Zrotation Xrotation Yrotation
    JOINT LeftKnee
    {
      OFFSET 0.7532 -40.9383 0
      CHANNELS 3 Zrotation Xrotation Yrotation
      JOINT LeftAnkle
      {
        OFFSET 0 -40.1986 0
        CHANNELS 3 Zrotation Xrotation Yrotation
        JOINT LeftToe
        {
          OFFSET 0 -4.4182 9.239
          CHANNELS 3 Zrotation Xrotation Yrotation
          End Site
          {
            OFFSET 0 0 6.1981
          }
        }
      }
    }
  }
}
MOTION
Frames:	6
Frame Time:	0.0333333
5.72205e-005 65.662 3.42586 0 0 -0 0 0 -0 0 0 -0 0 0 -0 0 0 -0 0 0 -0 0 0 -12.5014 88.1196 14.2451 10.6914 -0.00160068 -0.00239207 0.000740045 -8.4365e-005 7.00714e-005 -9.52055e-007 9.93923e-017 -1.98785e-016 -1.59028e-015 9.93923e-017 -5.96354e-016 -1.59028e-015 -9.93923e-017 -5.96354e-016 -1.59028e-015 9.93923e-017 -1.98785e-016 -1.59028e-015 -0.0128176 0.00232552 8.52707e-005 9.93923e-017 5.96354e-016 -0 9.93923e-017 -1.98785e-016 -1.59028e-015 -0.0160551 0.00299681 0.000857156 -2.48481e-016 0 3.18055e-015 9.93923e-017 -1.98785e-016 -1.59028e-015 -0.0125865 0.0031206 0.00282719 0 1.98785e-016 -0 9.93923e-017 -1.98785e-016 -1.59028e-015 9.93923e-017 -5.96354e-016 -1.59028e-015 -9.93923e-017 -5.96354e-016 -1.59028e-015 -0.865644 0.16582 7.03859 -88.0329 10.2057 -10.5567 0.0015593 -0.00248883 -0.000788628 7.87605e-005 4.10553e-005 1.24965e-005 -3.97569e-016 -7.95139e-016 3.18055e-015 -1.98785e-016 -3.97569e-016 3.18055e-015 -1.98785e-016 0 3.18055e-015 -3.97569e-016 -7.95139e-016 3.18055e-015 0.0129473 0.00231697 -8.70038e-005 9.93923e-017 -7.95139e-016 1.59028e-015 -3.97569e-016 -7.95139e-016 3.18055e-015 0.0163314 0.00303369 -0.000872333 3.97569e-016 7.95139e-016 -3.18055e-015 -3.97569e-016 -7.95139e-016 3.18055e-015 0.0145763 0.00367772 -0.00326275 9.93923e-017 -3.97569e-016 -0 -3.97569e-016 -7.95139e-016 3.18055e-015 -1.98785e-016 -3.97569e-016 3.18055e-015 -1.98785e-016 0 3.18055e-015 3.42482 1.32465 -0.0626183 0.000117508 0.717283 0.000978199 -3.4257 -2.04197 -0.0604716 6.47761e-025 0 -0 -3.42483 1.34017 0.0627307 -0.000193936 0.682302 -0.0013703 3.42574 -2.02253 0.0595886 -8.45714e-024 0 -7.40531e-025 
39.8832 18.5724 6.4259 180 -85.9956 180 -1.84686 1.14333 -0.0331546 -3.69417 2.2871 -0.0294397 -3.69416 2.28709 -0.0294413 -19.1649 -11.5487 -2.95233 -1.20478 -0.339669 1.20479 6.56438 3.23889 -5.03695 110.581 37.3819 -51.3388 -5.55922 -41.5649 -43.7323 -5.88148 8.39876 8.92349 1.21284e-007 8.28393e-007 8.29309e-007 -3.97569e-016 8.87406e-007 3.18055e-015 -1.40737e-006 -1.58405e-006 1.4842e-006 1.21284e-007 8.28393e-007 8.29309e-007 -0.0128381 0.00232793 8.49838e-005 -2.5842e-015 -1.59028e-015 3.18055e-015 1.21284e-007 8.28393e-007 8.29309e-007 -0.0160597 0.00299758 0.000858603 7.95139e-016 -1.59028e-015 -0 1.21284e-007 8.28393e-007 8.29309e-007 -0.0126012 0.00312433 0.0028297 -1.78906e-015 -1.59028e-015 -1.59028e-015 1.21284e-007 8.28393e-007 8.29309e-007 -3.97569e-016 8.87406e-007 3.18055e-015 -1.40737e-006 -1.58405e-006 1.4842e-006 -5.64655 2.79444 -7.34829 -93.0131 11.9293 43.4698 -1.91598 -3.87541 40.8077 -0.963138 -22.1373 -5.90444 1.78906e-015 0 -1.59028e-015 2.78299e-015 -7.95139e-016 -6.36111e-015 1.98785e-015 0 -6.36111e-015 1.78906e-015 0 -1.59028e-015 0.0129621 0.00231959 -8.6061e-005 -3.97569e-016 0 -3.18055e-015 1.78906e-015 0 -1.59028e-015 0.0163444 0.00303673 -0.000872846 4.41391e-032 -7.95139e-016 3.18055e-015 1.78906e-015 0 -1.59028e-015 0.014584 0.00367951 -0.00325945 -1.19271e-015 1.59028e-015 -0 1.78906e-015 0 -1.59028e-015 2.78299e-015 -7.95139e-016 -6.36111e-015 1.98785e-015 0 -6.36111e-015 -64.7425 -12.5702 -36.5435 -133.796 72.1927 141.339 -7.22004 -1.90112 1.29403 3.19833e-006 -5.56185e-007 -5.62264e-007 62.6391 -13.6196 33.0318 130.72 73.2152 -138.417 3.77571 -0.698883 0.25301 5.85549e-007 3.92761e-006 -8.13476e-006 
39.8829 18.4433 6.43063 180 -85.9956 180 -1.84711 1.09985 -0.0371515 -3.69452 2.20033 -0.0388301 -3.69453 2.20034 -0.038829 -19.0977 -10.5552 -2.60108 -1.20489 -1.22597 1.18603 5.79678 3.04517 -5.91514 111.218 38.1886 -51.7652 -5.35656 -40.1908 -43.5696 -5.01047 7.82355 8.57779 -1.98785e-015 -1.59028e-015 1.59028e-015 8.26816e-007 7.0757e-007 -8.13206e-008 2.5842e-015 2.58122e-006 1.59028e-015 -1.98785e-015 -1.59028e-015 1.59028e-015 -0.0128463 0.00233033 8.61223e-005 5.7914e-006 6.9566e-007 -7.31237e-007 -1.98785e-015 -1.59028e-015 1.59028e-015 -0.0160739 0.0030028 0.000858915 -1.20661e-007 8.28716e-007 -8.2906e-007 -1.98785e-015 -1.59028e-015 1.59028e-015 -0.0125962 0.00312423 0.00282885 5.79543e-006 1.03821e-006 -8.92973e-007 -1.98785e-015 -1.59028e-015 1.59028e-015 8.26816e-007 7.0757e-007 -8.13206e-008 2.5842e-015 2.58122e-006 1.59028e-015 -5.64664 2.79451 -7.34829 -93.0131 11.9293 43.4698 -1.91597 -3.87538 40.8077 -1.10136 -21.9891 -5.68157 -7.95139e-016 7.95139e-016 3.18055e-015 8.94531e-016 1.2042e-009 3.18055e-015 4.96962e-016 -2.38542e-015 -4.77083e-015 -7.95139e-016 7.95139e-016 3.18055e-015 0.0129418 0.00231459 -8.53414e-005 -2.78299e-015 7.95139e-016 1.59028e-015 -7.95139e-016 7.95139e-016 3.18055e-015 0.0163057 0.00302795 -0.000870405 -4.17448e-015 -2.38542e-015 -0 -7.95139e-016 7.95139e-016 3.18055e-015 0.0145929 0.0036822 -0.0032622 1.39149e-015 -8.7674e-007 -1.59028e-015 -7.95139e-016 7.95139e-016 3.18055e-015 8.94531e-016 1.2042e-009 3.18055e-015 4.96962e-016 -2.38542e-015 -4.77083e-015 -64.2964 -12.9433 -36.0387 -133.799 72.1916 141.343 -6.729 -1.86812 0.870888 -1.35222e-006 3.9998e-006 -2.34576e-006 62.3817 -13.895 32.7482 130.725 73.2141 -138.423 3.49221 -0.662994 0.517775 4.77083e-015 -2.63756e-008 -0 
39.8826 18.3142 6.43539 -180 -85.9956 -180 -1.84738 1.05609 -0.0411694 -3.69493 2.11299 -0.0482704 -3.69494 2.11299 -0.0482709 -19.0367 -9.56006 -2.25165 -1.2053 -2.11307 1.16726 5.02517 2.86282 -6.79729 111.87 38.9925 -52.2085 -5.16239 -38.813 -43.4159 -4.14298 7.24237 8.24095 -1.39149e-015 -3.18055e-015 -0 -5.96354e-016 -3.18055e-015 1.59028e-015 3.37934e-015 -1.59028e-015 1.59028e-015 -1.39149e-015 -3.18055e-015 -0 -0.0128412 0.00233062 8.64998e-005 -3.97569e-015 -1.59028e-015 -3.18055e-015 -1.39149e-015 -3.18055e-015 -0 -0.0160058 0.00298889 0.000856558 3.97569e-015 0 -0 -1.39149e-015 -3.18055e-015 -0 -0.0126156 0.00313242 0.00283656 1.39149e-015 -1.59028e-015 -0 -1.39149e-015 -3.18055e-015 -0 -5.96354e-016 -3.18055e-015 1.59028e-015 3.37934e-015 -1.59028e-015 1.59028e-015 -5.64658 2.79446 -7.3483 -93.0131 11.9293 43.4698 -1.91598 -3.87542 40.8077 -1.24011 -21.8414 -5.45857 -1.2921e-015 1.59028e-015 4.77083e-015 1.90551e-005 2.61644e-006 -1.66097e-006 6.69308e-008 1.72652e-006 8.35497e-007 -1.2921e-015 1.59028e-015 4.77083e-015 0.0129547 0.00231896 -8.6499e-005 -1.68967e-015 0 1.59028e-015 -1.2921e-015 1.59028e-015 4.77083e-015 0.0163451 0.00303626 -0.000873413 1.49089e-015 7.95139e-016 -1.59028e-015 -1.2921e-015 1.59028e-015 4.77083e-015 0.0146026 0.00368553 -0.00326648 -1.49089e-015 1.59028e-015 1.59028e-015 -1.2921e-015 1.59028e-015 4.77083e-015 1.90551e-005 2.61644e-006 -1.66097e-006 6.69308e-008 1.72652e-006 8.35497e-007 -63.8458 -13.3126 -35.5297 -133.804 72.1905 141.348 -6.23747 -1.83894 0.447141 -3.18055e-015 3.87392e-006 3.18055e-015 62.1225 -14.1691 32.4628 130.729 73.2131 -138.429 3.20851 -0.628588 0.782789 -2.41878e-006 -3.64991e-006 -1.32981e-006 
39.8824 18.1852 6.44017 180 -85.9956 180 -1.84763 1.01207 -0.045201 -3.69531 2.02508 -0.0577509 -3.69532 2.02505 -0.0577523 -18.9819 -8.56334 -1.90382 -1.206 -3.00098 1.14844 4.24964 2.69218 -7.68308 112.539 39.7929 -52.6692 -4.97619 -37.4318 -43.2707 -3.27893 6.65551 7.91305 2.98177e-015 -3.18055e-015 -1.59028e-015 3.18055e-015 -4.77083e-015 -0 3.18055e-015 -3.18055e-015 -3.18055e-015 2.98177e-015 -3.18055e-015 -1.59028e-015 -0.0128188 0.0023258 8.54295e-005 -2.98177e-015 1.59028e-015 1.59028e-015 2.98177e-015 -3.18055e-015 -1.59028e-015 -0.016051 0.00299667 0.00085866 -1.59028e-015 -3.18055e-015 -0 2.98177e-015 -3.18055e-015 -1.59028e-015 -0.0125809 0.00311978 0.00282566 -5.96354e-016 1.59028e-015 -6.36111e-015 2.98177e-015 -3.18055e-015 -1.59028e-015 3.18055e-015 -4.77083e-015 -0 3.18055e-015 -3.18055e-015 -3.18055e-015 -5.6466 2.79449 -7.34829 -93.0131 11.9293 43.4698 -1.91599 -3.87541 40.8077 -1.37933 -21.6942 -5.23533 8.54774e-015 3.18055e-015 3.18055e-015 1.20265e-014 1.29593e-006 3.18055e-015 1.05356e-014 2.38542e-015 1.59028e-015 8.54774e-015 3.18055e-015 3.18055e-015 0.0129443 0.00231827 -8.71514e-005 4.27387e-015 7.95139e-016 1.59028e-015 8.54774e-015 3.18055e-015 3.18055e-015 0.0163332 0.00303548 -0.000873577 1.39149e-015 -1.72577e-006 -3.18055e-015 8.54774e-015 3.18055e-015 3.18055e-015 0.0145938 0.00368492 -0.00326488 6.95746e-016 -7.95139e-016 -3.18055e-015 8.54774e-015 3.18055e-015 3.18055e-015 1.20265e-014 1.29593e-006 3.18055e-015 1.05356e-014 2.38542e-015 1.59028e-015 -63.3908 -13.6781 -35.0166 -133.807 72.1893 141.352 -5.74547 -1.8135 0.0228665 -5.24164e-007 8.45339e-006 -7.11998e-006 61.8615 -14.4418 32.1757 130.733 73.212 -138.434 2.92461 -0.59571 1.04804 -1.82375e-006 -7.93962e-006 1.17744e-005 
39.8822 18.0563 6.44498 180 -85.9956 180 -1.84786 0.967808 -0.049246 -3.69566 1.93667 -0.0672646 -3.69568 1.93668 -0.0672632 -18.9335 -7.56527 -1.55747 -1.20699 -3.88948 1.12959 3.47059 2.53333 -8.57222 113.225 40.5899 -53.1481 -4.79731 -36.048 -43.1334 -2.41838 6.06318 7.59413 1.19271e-015 -3.18055e-015 -3.18055e-015 -8.82781e-032 -3.18055e-015 -1.59028e-015 5.96354e-016 -3.18055e-015 -1.59028e-015 1.19271e-015 -3.18055e-015 -3.18055e-015 -0.012832 0.00232941 8.75944e-005 -5.96354e-016 0 -1.59028e-015 1.19271e-015 -3.18055e-015 -3.18055e-015 -0.0160737 0.00300133 0.00085895 -3.18055e-015 0 -1.59028e-015 1.19271e-015 -3.18055e-015 -3.18055e-015 -0.0125962 0.00312586 0.00282786 -1.59028e-015 -1.59028e-015 -3.18055e-015 1.19271e-015 -3.18055e-015 -3.18055e-015 -8.82781e-032 -3.18055e-015 -1.59028e-015 5.96354e-016 -3.18055e-015 -1.59028e-015 -5.64666 2.79451 -7.34829 -93.0131 11.9293 43.4698 -1.91599 -3.87541 40.8077 -1.51905 -21.5474 -5.0119 4.27387e-015 0 1.59028e-015 1.68967e-015 7.95139e-016 3.18055e-015 1.98785e-016 0 1.59028e-015 4.27387e-015 0 1.59028e-015 0.01294 0.00231561 -8.63052e-005 1.88845e-015 7.95139e-016 3.18055e-015 4.27387e-015 0 1.59028e-015 0.0163207 0.00303438 -0.000872034 9.93923e-017 -2.38542e-015 -1.59028e-015 4.27387e-015 0 1.59028e-015 0.0145768 0.00367943 -0.00326336 -1.59028e-015 -7.95139e-016 3.18055e-015 4.27387e-015 0 1.59028e-015 1.68967e-015 7.95139e-016 3.18055e-015 1.98785e-016 0 1.59028e-015 -62.9314 -14.0394 -34.4994 -133.811 72.1882 141.356 -5.25316 -1.79197 -0.401849 -3.35775e-007 -2.34672e-006 -3.34274e-006 61.5986 -14.7131 31.8869 130.738 73.2109 -138.44 2.64054 -0.564362 1.31356 1.59028e-015 0 3.18055e-015 
